HIERARCHY
ROOT Hips
{
  OFFSET 373.837 88.1643 177.628
  CHANNELS 6 Xposition Yposition Zposition Zrotation Xrotation Yrotation
  JOINT RightUpLeg
  {
    OFFSET -9.27602 -1.55371 -0.0617006
    CHANNELS 3 Zrotation Xrotation Yrotation
    JOINT RightLeg
    {
      OFFSET 0.0569767 -41.8713 0.0644562
      CHANNELS 3 Zrotation Xrotation Yrotation
      JOINT RightFoot
      {
        OFFSET -0.463049 -43.0064 -0.0336586
        CHANNELS 3 Zrotation Xrotation Yrotation
        End Site
        {
          OFFSET 0 -7.69 17.5
        }
      }
    }
  }
  JOINT LeftUpLeg
  {
    OFFSET 9.29312 -1.63815 0.0236341
    CHANNELS 3 Zrotation Xrotation Yrotation
    JOINT LeftLeg
    {
      OFFSET 0.0670365 -41.8776 -0.0578197
      CHANNELS 3 Zrotation Xrotation Yrotation
      JOINT LeftFoot
      {
        OFFSET 0.591956 -40.8352 0.210268
        CHANNELS 3 Zrotation Xrotation Yrotation
        End Site
        {
          OFFSET 0 -7.69 17.5
        }
      }
    }
  }
  JOINT Spine
  {
    OFFSET 0.0229142 14.2949 0.0394214
    CHANNELS 3 Zrotation Xrotation Yrotation
    JOINT Spine1
    {
      OFFSET 0.0328969 9.71943 0.0194292
      CHANNELS 3 Zrotation Xrotation Yrotation
      JOINT Spine2
      {
        OFFSET 0.0292955 10.1244 -0.00440821
        CHANNELS 3 Zrotation Xrotation Yrotation
        JOINT Spine3
        {
          OFFSET 0.024556 9.71184 0.0101567
          CHANNELS 3 Zrotation Xrotation Yrotation
          JOINT Neck
          {
            OFFSET 0.152325 10.3757 0.0664015
            CHANNELS 3 Zrotation Xrotation Yrotation
            JOINT Head
            {
              OFFSET 0.134553 9.4858 0.0499874
              CHANNELS 3 Zrotation Xrotation Yrotation
              End Site
              {
                OFFSET 0 15.95 0
              }
            }
          }
          JOINT RightShoulder
          {
            OFFSET -3.19519 6.89024 -0.0330231
            CHANNELS 3 Zrotation Xrotation Yrotation
            JOINT RightArm
            {
              OFFSET -12.6524 0.0927817 0.0603028
              CHANNELS 3 Zrotation Xrotation Yrotation
              JOINT RightForeArm
              {
                OFFSET -26.4983 -0.141459 0.202928
                CHANNELS 3 Zrotation Xrotation Yrotation
                JOINT RightHand
                {
                  OFFSET -25.9883 -0.0240172 0.0141731
                  CHANNELS 3 Zrotation Xrotation Yrotation
                  JOINT RightHandThumb1
                  {
                    OFFSET -2.48905 0.190105 3.12053
                    CHANNELS 3 Zrotation Xrotation Yrotation
                    JOINT RightHandThumb2
                    {
                      OFFSET -3.68274 0 0
                      CHANNELS 3 Zrotation Xrotation Yrotation
                      JOINT RightHandThumb3
                      {
                        OFFSET -2.55832 0 0
                        CHANNELS 3 Zrotation Xrotation Yrotation
                        End Site
                        {
                          OFFSET -2.194 0 0
                        }
                      }
                    }
                  }
                  JOINT RightInHandIndex
                  {
                    OFFSET -3.22368 0.508421 1.97842
                    CHANNELS 3 Zrotation Xrotation Yrotation
                    JOINT RightHandIndex1
                    {
                      OFFSET -5.21684 -0.091368 0.999158
                      CHANNELS 3 Zrotation Xrotation Yrotation
                      JOINT RightHandIndex2
                      {
                        OFFSET -3.61937 0 0
                        CHANNELS 3 Zrotation Xrotation Yrotation
                        JOINT RightHandIndex3
                        {
                          OFFSET -2.0521 0 0
                          CHANNELS 3 Zrotation Xrotation Yrotation
                          End Site
                          {
                            OFFSET -1.805 0 0
                          }
                        }
                      }
                    }
                  }
                  JOINT RightInHandMiddle
                  {
                    OFFSET -3.38211 0.517263 0.756737
                    CHANNELS 3 Zrotation Xrotation Yrotation
                    JOINT RightHandMiddle1
                    {
                      OFFSET -5.17411 -0.084 0.313895
                      CHANNELS 3 Zrotation Xrotation Yrotation
                      JOINT RightHandMiddle2
                      {
                        OFFSET -3.94947 0 0
                        CHANNELS 3 Zrotation Xrotation Yrotation
                        JOINT RightHandMiddle3
                        {
                          OFFSET -2.47579 0 0
                          CHANNELS 3 Zrotation Xrotation Yrotation
                          End Site
                          {
                            OFFSET -1.975 0 0
                          }
                        }
                      }
                    }
                  }
                  JOINT RightInHandRing
                  {
                    OFFSET -3.36516 0.537895 -0.128947
                    CHANNELS 3 Zrotation Xrotation Yrotation
                    JOINT RightHandRing1
                    {
                      OFFSET -4.63474 -0.022105 -0.478947
                      CHANNELS 3 Zrotation Xrotation Yrotation
                      JOINT RightHandRing2
                      {
                        OFFSET -3.44238 0 0
                        CHANNELS 3 Zrotation Xrotation Yrotation
                        JOINT RightHandRing3
                        {
                          OFFSET -2.3881 0 0
                          CHANNELS 3 Zrotation Xrotation Yrotation
                          End Site
                          {
                            OFFSET -1.857 0 0
                          }
                        }
                      }
                    }
                  }
                  JOINT RightInHandPinky
                  {
                    OFFSET -3.16105 0.469368 -1.20179
                    CHANNELS 3 Zrotation Xrotation Yrotation
                    JOINT RightHandPinky1
                    {
                      OFFSET -4.14105 -0.022105 -1.09053
                      CHANNELS 3 Zrotation Xrotation Yrotation
                      JOINT RightHandPinky2
                      {
                        OFFSET -2.75653 0 0
                        CHANNELS 3 Zrotation Xrotation Yrotation
                        JOINT RightHandPinky3
                        {
                          OFFSET -1.74189 0 0
                          CHANNELS 3 Zrotation Xrotation Yrotation
                          End Site
                          {
                            OFFSET -1.645 0 0
                          }
                        }
                      }
                    }
                  }
                }
              }
            }
          }
          JOINT LeftShoulder
          {
            OFFSET 3.28609 6.87948 -0.0751467
            CHANNELS 3 Zrotation Xrotation Yrotation
            JOINT LeftArm
            {
              OFFSET 12.831 -0.0663252 -0.1321
              CHANNELS 3 Zrotation Xrotation Yrotation
              JOINT LeftForeArm
              {
                OFFSET 26.5106 -0.082189 -0.0903645
                CHANNELS 3 Zrotation Xrotation Yrotation
                JOINT LeftHand
                {
                  OFFSET 25.9965 -0.0307163 -0.0535747
                  CHANNELS 3 Zrotation Xrotation Yrotation
                  JOINT LeftHandThumb1
                  {
                    OFFSET 2.48905 0.190105 3.12053
                    CHANNELS 3 Zrotation Xrotation Yrotation
                    JOINT LeftHandThumb2
                    {
                      OFFSET 3.68274 0 0
                      CHANNELS 3 Zrotation Xrotation Yrotation
                      JOINT LeftHandThumb3
                      {
                        OFFSET 2.55832 0 0
                        CHANNELS 3 Zrotation Xrotation Yrotation
                        End Site
                        {
                          OFFSET 2.194 0 0
                        }
                      }
                    }
                  }
                  JOINT LeftInHandIndex
                  {
                    OFFSET 3.22368 0.508421 1.97842
                    CHANNELS 3 Zrotation Xrotation Yrotation
                    JOINT LeftHandIndex1
                    {
                      OFFSET 5.21684 -0.091368 0.999158
                      CHANNELS 3 Zrotation Xrotation Yrotation
                      JOINT LeftHandIndex2
                      {
                        OFFSET 3.61937 0 0
                        CHANNELS 3 Zrotation Xrotation Yrotation
                        JOINT LeftHandIndex3
                        {
                          OFFSET 2.0521 0 0
                          CHANNELS 3 Zrotation Xrotation Yrotation
                          End Site
                          {
                            OFFSET 1.805 0 0
                          }
                        }
                      }
                    }
                  }
                  JOINT LeftInHandMiddle
                  {
                    OFFSET 3.38211 0.517263 0.756737
                    CHANNELS 3 Zrotation Xrotation Yrotation
                    JOINT LeftHandMiddle1
                    {
                      OFFSET 5.17411 -0.084 0.313895
                      CHANNELS 3 Zrotation Xrotation Yrotation
                      JOINT LeftHandMiddle2
                      {
                        OFFSET 3.94947 0 0
                        CHANNELS 3 Zrotation Xrotation Yrotation
                        JOINT LeftHandMiddle3
                        {
                          OFFSET 2.47579 0 0
                          CHANNELS 3 Zrotation Xrotation Yrotation
                          End Site
                          {
                            OFFSET 1.975 0 0
                          }
                        }
                      }
                    }
                  }
                  JOINT LeftInHandRing
                  {
                    OFFSET 3.36516 0.537895 -0.128947
                    CHANNELS 3 Zrotation Xrotation Yrotation
                    JOINT LeftHandRing1
                    {
                      OFFSET 4.63474 -0.022105 -0.478947
                      CHANNELS 3 Zrotation Xrotation Yrotation
                      JOINT LeftHandRing2
                      {
                        OFFSET 3.44238 0 0
                        CHANNELS 3 Zrotation Xrotation Yrotation
                        JOINT LeftHandRing3
                        {
                          OFFSET 2.3881 0 0
                          CHANNELS 3 Zrotation Xrotation Yrotation
                          End Site
                          {
                            OFFSET 1.857 0 0
                          }
                        }
                      }
                    }
                  }
                  JOINT LeftInHandPinky
                  {
                    OFFSET 3.16105 0.469368 -1.20179
                    CHANNELS 3 Zrotation Xrotation Yrotation
                    JOINT LeftHandPinky1
                    {
                      OFFSET 4.14105 -0.022105 -1.09053
                      CHANNELS 3 Zrotation Xrotation Yrotation
                      JOINT LeftHandPinky2
                      {
                        OFFSET 2.75653 0 0
                        CHANNELS 3 Zrotation Xrotation Yrotation
                        JOINT LeftHandPinky3
                        {
                          OFFSET 1.74189 0 0
                          CHANNELS 3 Zrotation Xrotation Yrotation
                          End Site
                          {
                            OFFSET 1.645 0 0
                          }
                        }
                      }
                    }
                  }
                }
              }
            }
          }
        }
      }
    }
  }
}
MOTION
Frames: 3
Frame Time: 0.00833333
7.510706477553344484e+02 -4.217481054470372248e-01 -4.824145170018450557e+00 5.816678003067515590e+00 6.651253427287219466e+00 -1.194947726487559203e+00 -9.374550092256408007e+00 -1.301497562447075929e+01 -1.146133601628194221e+01 1.638372105310198501e+00 5.083542175703295918e+00 -1.228117716337176146e+00 8.461344010278664118e-01 -5.885846751358706719e+00 -4.545021793776745866e+00 4.448351636636438400e+00 -1.182397150396462493e+01 -6.901744351643673836e-02 2.739628910458701050e+00 -3.271284344098440711e-02 -3.424591164304904733e+00 -2.221675740292633705e+00 2.627628450845171493e+00 3.115902890656589541e+00 6.511857203599147326e-02 2.638045526728332923e+00 -7.109945175863240374e-01 1.022523728819553779e-01 8.724798097699547617e-01 -1.850465969163189450e-01 1.577537069893029664e-01 1.472274578709355408e+00 -2.092386600705902211e-01 1.196391377812377477e-01 1.123943307664589664e-01 -3.151924094907066487e-01 -5.563353628761774639e-01 7.924184868888115574e-01 1.373311551956251320e+00 1.632646008685927796e+00 -1.625823852427992433e+00 -6.517051409250775862e+00 1.653889439184732302e+00 -3.372571498619431729e+00 -1.231241551924569411e+00 6.388365988371702997e+00 8.796929835483572546e+00 3.268394401660296156e-02 -1.942600938164475366e+01 -1.244934662440330442e+01 -3.357095843313406647e+01 -6.731121590794334475e-01 -4.196938761914440263e+00 -1.872588287788523154e+00 0.000000000000000000e+00 0.000000000000000000e+00 0.000000000000000000e+00 1.074870916976316742e-15 3.110148772486592605e-16 0.000000000000000000e+00 7.220465216536261092e-16 1.128206605063838830e-15 0.000000000000000000e+00 -4.940751776993155826e-15 -2.833615732047278014e-16 2.101146920426439664e-15 0.000000000000000000e+00 0.000000000000000000e+00 0.000000000000000000e+00 0.000000000000000000e+00 1.489023812400574475e-16 -2.020001465191758498e-15 0.000000000000000000e+00 -1.080956336104663842e-14 -6.816405677067667551e-14 -4.940751776993155826e-15 -2.833615732047278014e-16 2.101146920426439664e-15 0.000000000000000000e+00 2.602266447116537898e-16 -1.816651007404058995e-15 0.000000000000000000e+00 1.299257358816171641e-15 -1.739704912368195494e-15 0.000000000000000000e+00 -1.165148508783382308e-14 -6.186531262575739145e-14 -4.940751776993155826e-15 -2.833615732047278014e-16 2.101146920426439664e-15 0.000000000000000000e+00 0.000000000000000000e+00 0.000000000000000000e+00 0.000000000000000000e+00 8.185572852618934671e-16 1.096479145539185223e-15 0.000000000000000000e+00 1.688304216018578948e-16 -1.683332242000243987e-14 -4.940751776993155826e-15 -2.833615732047278014e-16 2.101146920426439664e-15 0.000000000000000000e+00 0.000000000000000000e+00 0.000000000000000000e+00 0.000000000000000000e+00 5.192545203090020737e-17 -1.720638130558658653e-16 0.000000000000000000e+00 -7.330002285413961241e-16 -2.938779073364482461e-15 1.694500262236610988e+00 6.139704375604279063e-01 4.011819009815068782e+00 7.677522249231727436e-02 7.517671563280604374e+00 1.331913588063336373e+00 -2.612358616841679027e+00 -5.998803610714325885e+00 2.055061737822071777e+01 -3.106413245037369375e+00 -1.881551166219297411e+00 3.444251875172148036e+00 0.000000000000000000e+00 0.000000000000000000e+00 0.000000000000000000e+00 -5.208179890902599834e-15 -1.268544896219058120e-15 0.000000000000000000e+00 -1.875451482023504214e-15 1.219402405385480890e-16 0.000000000000000000e+00 -4.168480245691344483e-17 -1.700591448211293421e-16 1.195513849344378068e-16 0.000000000000000000e+00 0.000000000000000000e+00 0.000000000000000000e+00 0.000000000000000000e+00 -1.366783597800611854e-15 1.896769032371253592e-15 0.000000000000000000e+00 -9.299409001382397050e-16 -4.575972515076650286e-16 -4.168480245691344483e-17 -1.700591448211293421e-16 1.195513849344378068e-16 0.000000000000000000e+00 -4.752596277073327458e-15 3.407926460417084553e-15 0.000000000000000000e+00 1.210767882541020902e-15 3.268274215780623408e-15 0.000000000000000000e+00 -1.321310101631485392e-15 -1.263083159874189928e-15 -4.168480245691344483e-17 -1.700591448211293421e-16 1.195513849344378068e-16 0.000000000000000000e+00 0.000000000000000000e+00 0.000000000000000000e+00 0.000000000000000000e+00 1.496236641796030434e-15 3.248176670655411343e-15 0.000000000000000000e+00 4.539200309907211246e-16 -4.477771568530410410e-16 -4.168480245691344483e-17 -1.700591448211293421e-16 1.195513849344378068e-16 0.000000000000000000e+00 0.000000000000000000e+00 0.000000000000000000e+00 0.000000000000000000e+00 4.234780870169243892e-17 -6.291772442598404119e-16 0.000000000000000000e+00 1.673515828272626135e-15 6.006855453997583384e-16
7.511463467883934300e+02 -4.270385361031645566e-01 -4.735863849400335113e+00 5.813890867295396170e+00 6.647740800703918040e+00 -1.159250338959488591e+00 -9.511414164652720160e+00 -1.317660505517823921e+01 -1.154902054719100235e+01 1.632398064149548800e+00 5.115392933750920967e+00 -1.210525067116136944e+00 9.002103572587372149e-01 -5.970489770426941512e+00 -4.615851492027896796e+00 4.416371155737834009e+00 -1.199384244586470594e+01 -1.006602975083986662e-01 2.824949471290739922e+00 1.002148638078084741e-01 -3.448601914670498481e+00 -2.220161930280821316e+00 2.584126559014577218e+00 3.107911288721654230e+00 1.274572930403796156e-01 2.754283640950293766e+00 -7.847781006848630891e-01 1.171649045467188927e-01 9.017946366831545157e-01 -2.029200219049877574e-01 1.820605552473842925e-01 1.520459950652508274e+00 -2.359151818042907467e-01 1.117272792531757847e-01 1.144094101765966570e-01 -3.099704370067833392e-01 -5.670452044179166151e-01 8.799742962430873172e-01 1.157583625265565130e+00 1.492524959858732014e+00 -1.729817593860690783e+00 -6.305942344987564674e+00 1.648071190079505088e+00 -3.360011035300363602e+00 -1.249335673955054737e+00 6.919172050453151535e+00 8.992394131279253244e+00 4.586320301425449164e-02 -1.865720992280351709e+01 -1.246432641214351200e+01 -3.325270959590807962e+01 -6.264221665343707723e-01 -4.250821562205145732e+00 -1.860649620955543426e+00 0.000000000000000000e+00 0.000000000000000000e+00 0.000000000000000000e+00 9.288575401999061488e-16 2.498302532685724507e-16 0.000000000000000000e+00 6.160867171497311817e-16 1.001659932433425861e-15 0.000000000000000000e+00 -4.870023430666846580e-15 -3.361775023730101357e-16 2.091831743823310613e-15 0.000000000000000000e+00 0.000000000000000000e+00 0.000000000000000000e+00 0.000000000000000000e+00 1.032976783038583307e-16 -2.386084417965759557e-15 0.000000000000000000e+00 -1.044693041627697831e-14 -6.642221915265509335e-14 -4.870023430666846580e-15 -3.361775023730101357e-16 2.091831743823310613e-15 0.000000000000000000e+00 1.936600472480265773e-16 -1.970805364527865384e-15 0.000000000000000000e+00 1.185053842974325789e-15 -1.978909429452821373e-15 0.000000000000000000e+00 -1.132709384780165303e-14 -5.982828335873376047e-14 -4.870023430666846580e-15 -3.361775023730101357e-16 2.091831743823310613e-15 0.000000000000000000e+00 0.000000000000000000e+00 0.000000000000000000e+00 0.000000000000000000e+00 7.472467533136041751e-16 8.153045361308775925e-16 0.000000000000000000e+00 1.115981291610010880e-16 -1.729876895844292766e-14 -4.870023430666846580e-15 -3.361775023730101357e-16 2.091831743823310613e-15 0.000000000000000000e+00 0.000000000000000000e+00 0.000000000000000000e+00 0.000000000000000000e+00 2.084765576456227775e-16 -4.629236354410847443e-16 0.000000000000000000e+00 -7.823057776069918798e-16 -3.146578676423238968e-15 1.792250639908547383e+00 6.771806442501542289e-01 3.992532098803185825e+00 6.968520874392702957e-02 7.628169021166531394e+00 1.423224853738712214e+00 -3.029893802854759954e+00 -5.806742366805092814e+00 2.075048155277989892e+01 -3.107009958610582157e+00 -1.925736767016328121e+00 3.582023000929095424e+00 0.000000000000000000e+00 0.000000000000000000e+00 0.000000000000000000e+00 -5.323412242867281260e-15 -1.122590106480323665e-15 0.000000000000000000e+00 -1.961083070936361080e-15 3.054025424709960777e-16 0.000000000000000000e+00 -1.142242880286627308e-16 -1.660715961028295309e-16 1.801913723968638812e-16 0.000000000000000000e+00 0.000000000000000000e+00 0.000000000000000000e+00 0.000000000000000000e+00 -1.275105808634475749e-15 2.083999946949891744e-15 0.000000000000000000e+00 -8.765523902285523098e-16 -2.860670680891426898e-16 -1.142242880286627308e-16 -1.660715961028295309e-16 1.801913723968638812e-16 0.000000000000000000e+00 -4.787842045948840063e-15 3.585178178303309232e-15 0.000000000000000000e+00 1.137399083526218177e-15 3.684104217280516492e-15 0.000000000000000000e+00 -1.457562947988640585e-15 -1.021923313650148198e-15 -1.142242880286627308e-16 -1.660715961028295309e-16 1.801913723968638812e-16 0.000000000000000000e+00 0.000000000000000000e+00 0.000000000000000000e+00 0.000000000000000000e+00 1.379368045442182891e-15 3.543839766051918463e-15 0.000000000000000000e+00 3.826409292414488777e-16 -1.575029352182315256e-16 -1.142242880286627308e-16 -1.660715961028295309e-16 1.801913723968638812e-16 0.000000000000000000e+00 0.000000000000000000e+00 0.000000000000000000e+00 0.000000000000000000e+00 2.630704609241817293e-17 -3.321851778668421730e-16 0.000000000000000000e+00 1.622083421059094376e-15 8.274368070464366070e-16
7.512232880146958678e+02 -4.323051461422346420e-01 -4.646156678488055469e+00 5.811458256836260716e+00 6.639041116111375374e+00 -1.122389278718485262e+00 -9.646611815812917712e+00 -1.333548042475982598e+01 -1.163245716591266898e+01 1.624210521222916093e+00 5.144559824062864273e+00 -1.187513085304499727e+00 9.511540691771229739e-01 -6.054749922538607443e+00 -4.689521024736441390e+00 4.383075615212031373e+00 -1.216300470156837932e+01 -1.292216828629433323e-01 2.910140251572648662e+00 2.378245737406764482e-01 -3.475655715149507330e+00 -2.217196820322462347e+00 2.538330535663889886e+00 3.097301496899079520e+00 1.900331034642869510e-01 2.871352049072107171e+00 -8.600114968963413764e-01 1.320983942093450492e-01 9.312229190773870791e-01 -2.212555686386302456e-01 2.064159436407808634e-01 1.568791778621896782e+00 -2.632884891211396683e-01 1.036270853330775871e-01 1.168006039406105923e-01 -3.047718129804763421e-01 -5.798212169358698542e-01 9.652325249647141225e-01 9.450094112141077529e-01 1.351677811152821373e+00 -1.826573562831074415e+00 -6.099881395952968077e+00 1.643227659831314247e+00 -3.344338381915435310e+00 -1.274250604391649722e+00 7.462002207622729699e+00 9.183620894812266400e+00 4.989763981226003065e-02 -1.780897818316791614e+01 -1.248703286627300280e+01 -3.285595435882766679e+01 -5.726044200223259217e-01 -4.302135949316602037e+00 -1.830944086721017161e+00 0.000000000000000000e+00 0.000000000000000000e+00 0.000000000000000000e+00 7.899851112598029148e-16 1.996828173131434621e-16 0.000000000000000000e+00 5.293435627490187245e-16 8.909182585601030434e-16 0.000000000000000000e+00 -4.782922386734816744e-15 -3.779256641262098380e-16 2.081390413667698743e-15 0.000000000000000000e+00 0.000000000000000000e+00 0.000000000000000000e+00 0.000000000000000000e+00 5.009535004616412992e-17 -2.708205334121840764e-15 0.000000000000000000e+00 -1.000626395738831218e-14 -6.413183450734070555e-14 -4.782922386734816744e-15 -3.779256641262098380e-16 2.081390413667698743e-15 0.000000000000000000e+00 1.409093858377273065e-16 -2.073465911320929928e-15 0.000000000000000000e+00 1.081390222687745509e-15 -2.202689190801055168e-15 0.000000000000000000e+00 -1.096391908520310668e-14 -5.743908334373553753e-14 -4.782922386734816744e-15 -3.779256641262098380e-16 2.081390413667698743e-15 0.000000000000000000e+00 0.000000000000000000e+00 0.000000000000000000e+00 0.000000000000000000e+00 6.797699029655782294e-16 5.170945449316670512e-16 0.000000000000000000e+00 4.508618151937837920e-17 -1.770394303058802771e-14 -4.782922386734816744e-15 -3.779256641262098380e-16 2.081390413667698743e-15 0.000000000000000000e+00 0.000000000000000000e+00 0.000000000000000000e+00 0.000000000000000000e+00 3.789850382013207417e-16 -7.488166337595353782e-16 0.000000000000000000e+00 -8.008347413147726521e-16 -3.333340619438887707e-15 1.889479487810692415e+00 7.398459812304050143e-01 3.969103781362688377e+00 5.510061394508275479e-02 7.744796917200518216e+00 1.521542655006094424e+00 -3.454874014926655690e+00 -5.576723570024896048e+00 2.093317055217609735e+01 -3.109719644160495289e+00 -1.961687092176098046e+00 3.714232869489081157e+00 0.000000000000000000e+00 0.000000000000000000e+00 0.000000000000000000e+00 -5.431827600444107578e-15 -9.859534782908158429e-16 0.000000000000000000e+00 -2.014940973923787223e-15 4.780023344448921401e-16 0.000000000000000000e+00 -1.711082683110879980e-16 -1.457155880567791460e-16 2.308157233087874850e-16 0.000000000000000000e+00 0.000000000000000000e+00 0.000000000000000000e+00 0.000000000000000000e+00 -1.212349738597215112e-15 2.241860781546388221e-15 0.000000000000000000e+00 -8.231775338855850217e-16 -9.008746090314221262e-17 -1.711082683110879980e-16 -1.457155880567791460e-16 2.308157233087874850e-16 0.000000000000000000e+00 -4.814023520835503326e-15 3.732302720376422165e-15 0.000000000000000000e+00 1.061935360949847007e-15 4.065444905534581802e-15 0.000000000000000000e+00 -1.579968458129271382e-15 -7.852936717167629987e-16 -1.711082683110879980e-16 -1.457155880567791460e-16 2.308157233087874850e-16 0.000000000000000000e+00 0.000000000000000000e+00 0.000000000000000000e+00 0.000000000000000000e+00 1.247784431792649257e-15 3.826772458121472914e-15 0.000000000000000000e+00 3.052854554553820435e-16 1.641632794202392406e-16 -1.711082683110879980e-16 -1.457155880567791460e-16 2.308157233087874850e-16 0.000000000000000000e+00 0.000000000000000000e+00 0.000000000000000000e+00 0.000000000000000000e+00 1.498518098678009430e-17 -5.366321313855502808e-17 0.000000000000000000e+00 1.561211173121817209e-15 1.039263180589500045e-15
